<svg width="408" height="237" viewBox="0 0 408 237" fill="none" xmlns="http://www.w3.org/2000/svg">
<g clip-path="url(#clip0_1324_18239)">
<path d="M408 0H0V237H408V0Z" fill="white"/>
<path d="M247.351 69.3887C236.628 68.0524 226.817 75.3803 225.437 85.7559C224.056 96.1308 231.629 105.625 242.352 106.961C253.074 108.297 262.886 100.969 264.266 90.5937L244.851 88.1748C244.851 88.1748 246.427 76.3316 247.351 69.3887Z" fill="#F2F2F2"/>
<path d="M250.905 66.7358C249.98 73.6788 248.405 85.5219 248.405 85.5219L267.819 87.9408C269.2 77.5658 261.627 68.0722 250.905 66.7358Z" fill="#EBEBEB"/>
<path fill-rule="evenodd" clip-rule="evenodd" d="M64.3859 160.496C63.3018 159.039 62.1988 157.593 61.1366 156.118C59.8194 154.29 59.8711 153.088 61.4693 151.536C63.5476 149.519 65.6611 147.532 67.847 145.625C69.155 144.483 69.5225 143.453 69.3424 141.564C68.9129 137.06 66.424 135.155 62.1787 134.439C60.2355 134.112 58.3958 133.247 56.4733 132.754C54.7638 132.316 54.3774 131.303 54.6482 129.765C55.3642 125.698 56.0578 121.627 56.7057 117.55C56.9363 116.099 57.7533 115.455 59.2122 115.475C62.5748 115.523 65.9416 115.52 69.301 115.654C70.8585 115.718 71.5916 115.017 72.6052 113.915C75.7183 110.532 75.4688 107.389 72.8552 103.95C71.8496 102.629 71.2327 101.036 70.4095 99.5804C69.2627 97.5536 69.5 96.2696 71.3781 94.9475C74.4905 92.754 77.6432 90.613 80.7423 88.4007C82.2669 87.314 83.6601 87.3699 84.9675 88.6433C87.3791 90.9915 89.7962 93.3362 92.1209 95.7646C92.9367 96.6158 93.6801 97.0079 94.7977 96.4557C94.9754 96.3674 95.1962 96.3238 95.3976 96.3232C100.063 96.3138 102.084 93.7118 102.794 89.5604C103.116 87.6796 103.958 85.8847 104.518 84.0374C104.955 82.5951 105.926 81.9058 107.435 82.1307C111.716 82.7688 115.994 83.4316 120.26 84.1604C121.856 84.4324 122.491 85.5256 122.447 87.0738C122.36 90.261 122.28 93.4499 122.299 96.6364C122.304 97.3705 122.486 98.4107 122.997 98.7786C124.748 100.041 126.613 101.213 128.587 102.101C129.219 102.385 130.387 101.799 131.204 101.405C133.903 100.106 136.55 98.7068 139.222 97.3522C140.928 96.4863 142.362 96.71 143.525 98.2959C145.795 101.388 148.123 104.439 150.38 107.541C151.654 109.289 151.481 110.309 149.827 111.891C147.392 114.217 144.961 116.546 142.531 118.875C142.291 119.106 141.837 119.398 141.874 119.589C142.316 121.794 142.625 124.062 143.435 126.143C143.746 126.942 145.18 127.486 146.215 127.839C149.061 128.812 151.956 129.656 154.852 130.485C156.472 130.948 157.066 131.972 156.82 133.492C156.173 137.502 155.474 141.505 154.814 145.512C154.56 147.062 153.729 147.854 152.036 147.808C148.675 147.716 145.311 147.733 141.951 147.61C140.486 147.557 139.37 147.832 138.897 149.326C138.839 149.513 138.728 149.706 138.587 149.841C134.986 153.27 136.763 156.528 138.848 159.838C139.772 161.305 140.482 162.898 141.306 164.426C142.107 165.91 141.734 167.156 140.407 168.1C137.139 170.425 133.848 172.723 130.529 174.98C129.03 175.999 127.505 175.821 126.243 174.565C123.903 172.237 121.685 169.791 119.292 167.52C118.749 167.004 117.669 166.746 116.875 166.81C115.523 166.921 114.212 167.579 112.864 167.647C110.803 167.752 110.113 168.881 109.639 170.585C108.834 173.47 107.8 176.293 106.947 179.166C106.483 180.725 105.495 181.373 103.891 181.129C99.6788 180.487 95.4724 179.817 91.2649 179.148C89.6776 178.895 88.9165 178.08 88.9944 176.412C89.1477 173.161 89.1136 169.901 89.2304 166.647C89.2754 165.385 88.9554 164.443 87.6766 163.922C87.1729 163.716 86.6193 163.494 86.2548 163.126C83.4119 160.258 80.6364 161.322 77.743 163.084C75.9525 164.175 74.0251 165.061 72.1288 165.979C70.3012 166.862 68.9147 166.504 67.6462 164.864C66.5347 163.427 65.4719 161.954 64.3859 160.496ZM113.839 125.801C110.428 121.246 104.435 120.335 99.7013 123.652C95.1007 126.875 94.0421 132.968 97.3104 137.418C100.615 141.916 107.058 142.922 111.737 139.669C116.45 136.394 117.347 130.485 113.839 125.801Z" fill="#F2F2F2"/>
<path fill-rule="evenodd" clip-rule="evenodd" d="M169.129 109.633C168.352 109.113 167.568 108.601 166.799 108.069C165.844 107.409 165.657 106.824 166.151 105.815C166.792 104.504 167.456 103.201 168.169 101.925C168.596 101.162 168.591 100.606 168.172 99.7299C167.172 97.6389 165.641 97.1356 163.478 97.4929C162.488 97.6566 161.452 97.5447 160.442 97.626C159.545 97.6978 159.182 97.2751 159.04 96.4928C158.667 94.4218 158.282 92.3537 157.874 90.2904C157.729 89.5563 158.008 89.1118 158.711 88.8811C160.334 88.3483 161.95 87.7914 163.586 87.3016C164.344 87.075 164.572 86.6176 164.864 85.9218C165.762 83.7849 165.088 82.3179 163.228 81.0981C162.512 80.6307 161.936 79.9678 161.284 79.4051C160.376 78.6215 160.264 77.9669 160.932 77.0215C162.039 75.4556 163.174 73.9085 164.272 72.335C164.812 71.5614 165.49 71.3583 166.343 71.7533C167.914 72.4827 169.488 73.2092 171.031 73.9909C171.573 74.2647 171.998 74.33 172.438 73.8809C172.507 73.8096 172.606 73.7519 172.702 73.7184C174.94 72.9448 175.452 71.3631 175.06 69.2526C174.883 68.2966 174.971 67.2958 174.914 66.318C174.869 65.5528 175.214 65.0624 175.978 64.9217C178.145 64.5208 180.316 64.1328 182.491 63.7785C183.305 63.6466 183.801 64.0657 184.053 64.8163C184.574 66.3598 185.097 67.9034 185.669 69.4298C185.8 69.7807 186.071 70.251 186.381 70.3423C187.444 70.6602 188.546 70.9145 189.65 71.014C190.002 71.0457 190.46 70.5719 190.782 70.2487C191.849 69.1796 192.873 68.0711 193.916 66.9803C194.582 66.2839 195.31 66.1538 196.147 66.723C197.781 67.8327 199.437 68.913 201.067 70.0291C201.986 70.6578 202.083 71.1764 201.568 72.2078C200.81 73.726 200.053 75.2448 199.297 76.7636C199.223 76.9143 199.057 77.1298 199.108 77.2146C199.71 78.2 200.257 79.2379 201.013 80.1032C201.303 80.4358 202.087 80.4594 202.646 80.4576C204.182 80.4553 205.722 80.3823 207.257 80.3016C208.116 80.2563 208.581 80.6507 208.731 81.4207C209.127 83.4517 209.498 85.4879 209.887 87.5206C210.039 88.3059 209.78 88.8234 208.959 89.0807C207.33 89.591 205.718 90.1556 204.084 90.6507C203.371 90.8661 202.884 91.1823 202.921 91.9776C202.925 92.0759 202.907 92.1877 202.863 92.276C201.739 94.5166 203.166 95.7863 204.75 97.0302C205.452 97.5818 206.073 98.2294 206.738 98.8269C207.384 99.4067 207.425 100.066 206.954 100.738C205.796 102.394 204.621 104.039 203.426 105.671C202.887 106.407 202.124 106.573 201.296 106.179C199.763 105.447 198.268 104.64 196.719 103.945C196.367 103.787 195.803 103.841 195.433 104.003C194.804 104.28 194.291 104.811 193.656 105.067C192.685 105.457 192.553 106.113 192.625 107.009C192.748 108.526 192.749 110.051 192.846 111.572C192.899 112.397 192.539 112.87 191.727 113.018C189.592 113.405 187.454 113.778 185.318 114.151C184.511 114.29 184.003 114.025 183.746 113.213C183.246 111.627 182.655 110.068 182.138 108.487C181.936 107.874 181.618 107.474 180.911 107.436C180.634 107.42 180.328 107.405 180.089 107.288C178.218 106.381 177.075 107.349 175.997 108.673C175.33 109.492 174.56 110.236 173.813 110.988C173.091 111.714 172.363 111.771 171.464 111.194C170.678 110.686 169.907 110.154 169.129 109.633ZM186.747 84.8215C184.308 83.1985 181.27 83.7507 179.584 86.1237C177.943 88.4307 178.509 91.529 180.863 93.1255C183.241 94.7391 186.51 94.1586 188.182 91.8251C189.868 89.4739 189.257 86.4904 186.747 84.8215Z" fill="#F2F2F2"/>
<path d="M142.091 18.6794H79.4936V49.1491H142.091V18.6794Z" stroke="#222222" stroke-width="0.5" stroke-miterlimit="10" stroke-linecap="round" stroke-linejoin="round"/>
<path d="M110.791 21.2639H84.8036V46.5632H110.791V21.2639Z" fill="#EBEBEB"/>
<path d="M84.8036 21.2639L110.791 46.5626" stroke="#222222" stroke-width="0.5" stroke-miterlimit="10" stroke-linecap="round" stroke-linejoin="round"/>
<path d="M110.791 21.2639L84.8036 46.5626" stroke="#222222" stroke-width="0.5" stroke-miterlimit="10" stroke-linecap="round" stroke-linejoin="round"/>
<path d="M135.6 23.1111H116.134V25.8808H135.6V23.1111Z" fill="#EBEBEB"/>
<path d="M135.6 27.3577H116.134V28.004H135.6V27.3577Z" fill="#222222"/>
<path d="M135.6 30.3125H116.134V30.9589H135.6V30.3125Z" fill="#222222"/>
<path d="M132.308 32.4368H116.134V34.1451H132.308V32.4368Z" fill="#EBEBEB"/>
<path d="M308.518 37.8425H257.8V42.6933H308.518V37.8425Z" fill="#EBEBEB"/>
<path d="M296.367 44.6338H265.937V64.2069H296.367V44.6338Z" fill="#EBEBEB"/>
<path d="M286.654 48.8281H268.386V50.8255H286.654V48.8281Z" fill="#222222"/>
<path d="M284.044 51.7651H268.386V53.7625H284.044V51.7651Z" fill="#222222"/>
<path d="M294.509 46.6284H292.239V48.8254H294.509V46.6284Z" fill="white"/>
<path d="M306.951 40.2666C306.951 40.9759 306.356 41.5505 305.624 41.5505C304.891 41.5505 304.297 40.9759 304.297 40.2666C304.297 39.5572 304.891 38.9827 305.624 38.9827C306.356 38.9827 306.951 39.5578 306.951 40.2666Z" fill="white"/>
<path d="M308.518 37.8425H257.8V79.3853H308.518V37.8425Z" stroke="#222222" stroke-width="0.5" stroke-miterlimit="10" stroke-linecap="round" stroke-linejoin="round"/>
<path d="M175.124 173.305H136.031V236.997H175.124V173.305Z" fill="#C18CFF"/>
<path d="M186.294 173.305H175.124V236.997H186.294V173.305Z" fill="#745499"/>
<path d="M242.505 151.119H203.411V236.997H242.505V151.119Z" fill="#C18CFF"/>
<path d="M253.674 151.119H242.505V236.997H253.674V151.119Z" fill="#745499"/>
<path d="M309.882 123.72H270.788V236.998H309.882V123.72Z" fill="#C18CFF"/>
<path d="M321.054 123.72H309.885V236.998H321.054V123.72Z" fill="#745499"/>
<path d="M375.44 99.7881H336.346V236.997H375.44V99.7881Z" fill="#C18CFF"/>
<path d="M386.609 99.7881H375.44V236.997H386.609V99.7881Z" fill="#745499"/>
<path d="M0 236.896H408" stroke="#222222" stroke-width="0.5" stroke-miterlimit="10" stroke-linecap="round" stroke-linejoin="round"/>
<path d="M136.029 213.041V226.636C136.029 226.636 294.067 217.379 326.574 111.555L332.095 112.958L326.92 101.959L317.463 109.015L322.138 110.486C322.139 110.486 288.904 197.078 136.029 213.041Z" fill="#9747FF"/>
<path d="M92.6033 121.734C97.0494 119.333 95.9476 118.384 95.9476 118.384C95.9476 118.384 91.1791 120.89 90.9868 120.991C89.6149 121.715 88.8502 121.796 92.0211 120.045C95.6361 118.047 95.0234 116.69 95.0234 116.69L89.0686 119.577C93.9661 116.388 92.9464 115.206 92.9464 115.206L86.0766 119.064C86.5322 114.606 84.6834 113.941 84.7716 115.336C84.8026 115.825 84.6998 116.488 84.5532 117.144C84.2818 118.36 83.6875 119.478 82.9057 120.465C81.9475 121.676 81.7126 123.057 81.7126 123.057L69.615 127.196C69.615 127.196 68.0271 112.021 66.6175 105.159C66.6175 105.159 64.3786 98.7071 57.9535 99.4436C57.9535 99.4436 59.8608 122.936 60.926 129.319C61.229 131.135 61.2643 136.618 66.5816 136.128C71.6585 135.661 84.1097 126.391 84.1097 126.391C84.7448 126.296 88.6543 125.662 92.3088 123.978C96.2998 122.139 95.7346 121.207 95.7346 121.207C95.7346 121.207 88.1913 124.116 92.6033 121.734Z" fill="#C1584F"/>
<path d="M58.6305 99.0144C58.6023 99.0172 58.5789 99.02 58.5506 99.0228C58.601 99.0178 58.6305 99.0144 58.6305 99.0144Z" fill="#F97869"/>
<path d="M84.6039 123.272C84.6039 123.272 87.3319 121.732 88.9301 123.401" stroke="#222222" stroke-width="0.5" stroke-miterlimit="10" stroke-linecap="round" stroke-linejoin="round"/>
<path d="M88.0172 119.205C88.1991 119.214 89.911 121.308 90.8589 123.198" stroke="#222222" stroke-width="0.5" stroke-miterlimit="10" stroke-linecap="round" stroke-linejoin="round"/>
<path d="M86.9257 120.385L86.8059 122.628" stroke="#222222" stroke-width="0.5" stroke-miterlimit="10" stroke-linecap="round" stroke-linejoin="round"/>
<path d="M56.5704 97.8804C56.5704 97.8804 56.7261 97.8969 57.0011 97.941C62.6791 98.8517 67.0771 103.248 67.924 108.756L70.5948 126.122L79.9858 123.399L82.2818 127.707C82.2818 127.707 73.1963 137.128 63.9598 137.128L56.5704 97.8804Z" fill="#745499"/>
<path d="M28.9838 222.271C28.5263 223.129 26.3477 224.108 26.3477 224.108C26.3477 224.108 25.6748 221.982 26.1323 221.125C26.5892 220.267 27.5985 219.828 28.3858 220.145C29.1736 220.462 29.4413 221.414 28.9838 222.271Z" stroke="#020B31" stroke-width="0.5" stroke-miterlimit="10" stroke-linecap="round" stroke-linejoin="round"/>
<path d="M28.6016 225.691C27.703 225.698 26.3597 224.129 26.3597 224.129C26.3597 224.129 28.2408 222.389 29.1394 222.38C30.038 222.373 30.6458 223.107 30.4973 224.021C30.3489 224.935 29.5002 225.682 28.6016 225.691Z" stroke="#020B31" stroke-width="0.5" stroke-miterlimit="10" stroke-linecap="round" stroke-linejoin="round"/>
<path d="M26.0815 220.427L26.0292 220.317L32.6064 208.511L25.1063 200.532L17.2484 216.882L18.6635 220.731L26.0815 220.427Z" fill="#F2F2F2"/>
<path d="M29.7467 233.918L36.5387 235.267L32.9954 232.185C31.5499 230.927 30.383 229.399 29.5654 227.692L26.0818 220.425L22.8817 220.557C20.3739 220.66 18.0895 219.169 17.2481 216.881L12.2879 220.59L22.6353 230.285C24.601 232.125 27.0674 233.385 29.7467 233.918Z" fill="#745499"/>
<path d="M12.2916 220.591C11.3559 221.228 11.2616 222.537 12.0975 223.293L22.0063 232.261C23.9421 234.013 26.3404 235.214 28.937 235.729L34.6649 236.867C35.6839 237.07 36.6202 236.272 36.5411 235.268L29.7491 233.919C27.0698 233.386 24.6034 232.125 22.6384 230.285L12.2916 220.591Z" fill="#222222"/>
<path d="M66.579 227.199C66.8278 228.133 65.8769 230.269 65.8769 230.269C65.8769 230.269 63.9118 229.116 63.663 228.182C63.4135 227.247 63.8644 226.27 64.6699 225.999C65.4747 225.727 66.3295 226.265 66.579 227.199Z" stroke="#020B31" stroke-width="0.5" stroke-miterlimit="10" stroke-linecap="round" stroke-linejoin="round"/>
<path d="M68.6489 229.997C67.9839 230.582 65.9014 230.277 65.9014 230.277C65.9014 230.277 66.1071 227.766 66.7714 227.182C67.4364 226.597 68.3952 226.753 68.9135 227.531C69.4319 228.308 69.3132 229.413 68.6489 229.997Z" stroke="#020B31" stroke-width="0.5" stroke-miterlimit="10" stroke-linecap="round" stroke-linejoin="round"/>
<path d="M82.1714 234.793L62.9703 227.803C62.0066 228.109 61.1159 228.483 60.3323 228.864C58.0174 229.987 55.2876 229.975 53.0226 228.759L53.0147 228.755L51.7529 234.793H82.1714V234.793Z" fill="#745499"/>
<path d="M60.3321 228.863C61.1157 228.483 62.0057 228.109 62.97 227.803L63.6484 208.919H54.143L53.0151 228.755L53.023 228.759C55.2874 229.975 58.0172 229.988 60.3321 228.863Z" fill="#F2F2F2"/>
<path d="M51.7558 234.793V235.256C51.7558 236.22 52.5637 237.001 53.5597 237.001H80.6071C81.4722 237.001 82.1731 236.323 82.1731 235.486V234.793H51.7558Z" fill="#222222"/>
<path d="M63.3992 138.036L64.8265 224.485C64.8265 224.485 61.4755 227.802 51.7566 226.055L51.5394 183.673L50.2107 150.252L49.5171 149.984L46.6614 177.5C46.3925 180.093 45.6989 182.629 44.6069 185.012L29.2057 218.709C29.2057 218.709 20.5399 219.908 16.6006 213.648L30.7181 184.172C32.0985 181.426 32.9375 178.455 33.1936 175.411L36.0372 138.036L63.3992 138.036Z" fill="#222222"/>
<path d="M50.211 150.25L53.7719 152.12L51.4083 167.045L50.211 150.25Z" fill="#222222"/>
<path d="M34.953 153.196C34.953 153.196 41.1846 154.481 42.6137 142.11" stroke="white" stroke-width="0.5" stroke-miterlimit="10" stroke-linecap="round" stroke-linejoin="round"/>
<path d="M35.7944 141.33C35.7944 141.33 54.0082 144.141 63.4448 140.714" stroke="white" stroke-width="0.5" stroke-miterlimit="10" stroke-linecap="round" stroke-linejoin="round"/>
<path d="M58.762 141.89C58.762 141.89 58.5862 152.418 63.3997 152.365" stroke="white" stroke-width="0.5" stroke-miterlimit="10" stroke-linecap="round" stroke-linejoin="round"/>
<path d="M53.5346 97.4167H45.8118C45.8118 97.4167 37.4916 99.068 37.4916 106.565C37.4916 114.063 35.1396 139.233 35.1396 139.233C35.1396 139.233 48.5611 142.513 63.9885 139.568L63.5967 109.199L63.3588 106.216C62.9615 101.25 58.6815 97.4167 53.5346 97.4167Z" fill="#745499"/>
<path d="M63.9893 139.568L63.5975 109.198L63.3596 106.216C62.9629 101.25 58.683 97.4167 53.5361 97.4167" fill="#745499"/>
<path d="M63.9893 139.568L63.5975 109.198L63.3596 106.216C62.9629 101.25 58.683 97.4167 53.5361 97.4167" stroke="#222222" stroke-width="0.5" stroke-miterlimit="10"/>
<path d="M61.288 80.2733C60.4606 78.6521 58.4986 79.2078 58.4986 79.2078C58.4986 79.2078 58.776 74.1463 54.6305 71.5861C51.0507 69.3751 47.0823 69.1667 43.7532 71.4931C41.2369 73.2521 40.8932 76.1744 41.0447 78.3113C39.4519 78.3413 38.063 78.9417 37.4735 80.5842C36.2506 83.9921 39.0461 85.4031 39.0461 85.4031C39.0461 85.4031 37.5745 88.5267 41.1359 89.5716C44.6974 90.6165 47.342 94.5607 47.342 94.5607C47.342 94.5607 54.1401 89.6134 57.3025 89.3862C62.6368 89.0023 60.3486 83.4646 60.3486 83.4646C60.3486 83.4646 62.3447 82.3437 61.288 80.2733Z" fill="#222222"/>
<path d="M54.1248 98.0077L53.7081 94.0053C53.4665 94.0765 53.3218 94.103 53.3218 94.103C53.3218 94.103 49.8388 94.5898 47.2355 92.2051L46.7238 97.9041L53.3321 101.164L54.1248 98.0077Z" fill="#C1584F"/>
<path d="M53.3185 94.1047C53.3185 94.1047 49.8355 94.5915 47.2322 92.2068L47.231 92.278C47.3861 92.5565 47.548 92.8049 47.7159 93.0092C47.9325 93.2735 48.1624 93.5025 48.3973 93.7174C50.3252 95.4834 52.7326 95.6741 53.8532 95.6541L53.7054 94.0064C53.4633 94.0782 53.3185 94.1047 53.3185 94.1047Z" fill="#F47365"/>
<path d="M52.7505 75.7993C52.7505 75.7993 58.1122 78.9741 58.6536 86.0077C59.1099 91.9381 55.0052 93.6258 53.7063 94.0096C53.4647 94.0809 53.3199 94.1074 53.3199 94.1074C53.3199 94.1074 49.8369 94.5942 47.2337 92.2094C46.9994 91.9946 46.7695 91.765 46.5523 91.5013C45.3824 90.0778 44.4668 86.7223 44.7101 83.4757C44.7101 83.4757 51.8008 80.8131 52.7505 75.7993Z" fill="#C1584F"/>
<path d="M49.6132 84.3849C49.6491 84.7269 49.9642 84.9765 50.3183 84.9423C50.6718 84.9076 50.9298 84.6027 50.8945 84.2601C50.8586 83.918 50.5434 83.6684 50.1894 83.7026C49.8359 83.7367 49.5779 84.0423 49.6132 84.3849Z" fill="#222222"/>
<path d="M50.3489 81.1167C49.8239 81.258 49.1948 81.5659 48.6023 82.2099" stroke="#222222" stroke-width="0.5" stroke-miterlimit="10" stroke-linecap="round" stroke-linejoin="round"/>
<path d="M56.028 83.7584C56.0639 84.1004 55.8059 84.4059 55.4518 84.4407C55.0978 84.4754 54.7826 84.2258 54.7467 83.8832C54.7114 83.5406 54.9688 83.2356 55.3229 83.2009C55.6763 83.1667 55.9921 83.4158 56.028 83.7584Z" fill="#222222"/>
<path d="M56.2837 82.6657C55.7605 82.5173 55.1363 82.2006 54.5535 81.5483" stroke="#222222" stroke-width="0.5" stroke-miterlimit="10" stroke-linecap="round" stroke-linejoin="round"/>
<path d="M52.684 82.8342C52.684 82.8342 52.712 84.0805 53.9172 85.05C55.387 86.2321 54.9447 86.7743 53.7626 87.3382" stroke="#222222" stroke-width="0.5" stroke-miterlimit="10" stroke-linecap="round" stroke-linejoin="round"/>
<path opacity="0.5" d="M48.5565 86.3311C48.9562 85.8054 49.477 86.4441 49.477 86.4441C49.477 86.4441 49.8366 85.617 50.3519 86.0244C50.7984 86.3776 50.1779 87.615 49.7672 87.6933C49.3571 87.7716 48.2152 86.7803 48.5565 86.3311Z" fill="#F43D4F"/>
<path opacity="0.5" d="M57.5266 87.1122C57.2304 86.5258 56.6001 87.0645 56.6001 87.0645C56.6001 87.0645 56.3993 86.1885 55.8165 86.5005C55.3115 86.7707 55.6948 88.0953 56.0836 88.2436C56.4735 88.3914 57.7803 87.6131 57.5266 87.1122Z" fill="#F43D4F"/>
<path d="M53.8271 89.1233C53.8271 89.1233 51.9831 89.6708 50.9197 87.9766" stroke="#222222" stroke-width="0.5" stroke-miterlimit="10" stroke-linecap="round" stroke-linejoin="round"/>
<path d="M44.481 88.411C44.481 88.411 41.8929 88.504 41.6027 85.9138C41.3101 83.3036 43.9578 83.6156 43.9578 83.6156C43.9578 83.6156 43.67 85.5171 44.481 88.411Z" fill="#C1584F"/>
<path d="M43.3409 84.5737C43.3409 84.5737 42.3078 84.533 42.0858 85.6474" stroke="#222222" stroke-width="0.5" stroke-miterlimit="10" stroke-linecap="round" stroke-linejoin="round"/>
<path d="M42.7493 84.8323C42.7493 84.8323 42.5862 85.9213 43.4605 86.739" stroke="#222222" stroke-width="0.5" stroke-miterlimit="10" stroke-linecap="round" stroke-linejoin="round"/>
<path d="M37.2351 113.073C37.2351 113.073 38.7846 112.773 41.5777 108.555L35.7944 131.332L37.2351 113.073Z" fill="#5C457B"/>
<path d="M44.2657 97.8789C44.2657 97.8789 45.1466 103.085 52.6772 103.981L53.3275 101.166L56.0299 102.957C56.0299 102.957 58.2134 102.751 57.5564 98.2462" stroke="#222222" stroke-width="0.5" stroke-miterlimit="10"/>
<path d="M53.331 101.167L52.7481 103.688L54.4899 105.005L55.8594 102.842L53.331 101.167Z" fill="#222222"/>
<path d="M52.7413 127.115L53.4939 103.188L54.8141 102.962C56.6934 110.46 57.5956 126.971 57.5956 126.971L55.4 129.578L52.7413 127.115Z" fill="#222222"/>
<path d="M36.5412 153.233C36.5412 153.233 35.8652 178.789 34.9539 180.773C34.0425 182.756 17.9758 215.372 17.9758 215.372" stroke="white" stroke-width="0.5" stroke-miterlimit="10" stroke-linecap="round" stroke-linejoin="round"/>
<path d="M50.212 150.251C50.212 150.251 54.4147 176.363 54.5984 184.532C54.7822 192.701 54.68 226.563 54.68 226.563" stroke="white" stroke-width="0.5" stroke-miterlimit="10" stroke-linecap="round" stroke-linejoin="round"/>
<path d="M29.3691 92.5247L28.173 72.8368L28.1876 72.8338C28.1876 72.8338 29.3204 71.5534 29.3855 69.3971C29.4506 67.2407 30.2543 63.5868 30.2543 63.5868C30.2543 63.5868 29.3758 63.1305 28.7437 65.5542C28.1116 67.9778 27.6693 67.3508 27.6693 67.3508L25.2187 59.1705C25.2187 59.1705 23.831 58.9892 25.4109 64.5499L23.0218 58.8838C23.0218 58.8838 22.3125 58.905 22.3264 59.6473L22.1239 59.1275C22.1239 59.1275 20.9351 59.3518 22.1664 63.3289C22.9811 65.9603 22.7097 66.1911 21.8872 64.4886C21.0647 62.7862 20.396 61.6736 19.7706 61.9338L23.1514 71.8872C23.685 73.2465 24.5902 73.5179 24.5902 73.5179L24.5927 73.5173L20.9941 87.5403C20.2482 90.4478 21.0787 93.5231 23.2001 95.7053L37.3815 110.294L43.6217 98.2284L29.3691 92.5247Z" fill="#C1584F"/>
<path d="M27.6687 67.3516C27.6687 67.3516 25.8582 67.8843 25.8886 70.6223" stroke="#222222" stroke-width="0.5" stroke-miterlimit="10" stroke-linecap="round" stroke-linejoin="round"/>
<path d="M26.0877 64.5525C26.0877 64.5525 24.0234 64.3688 22.3765 66.2614" stroke="#222222" stroke-width="0.5" stroke-miterlimit="10" stroke-linecap="round" stroke-linejoin="round"/>
<path d="M22.3257 59.6465L24.0717 64.9764" stroke="#222222" stroke-width="0.5" stroke-miterlimit="10" stroke-linecap="round" stroke-linejoin="round"/>
<path d="M22.6559 96.3637C28.1442 103.562 37.2334 113.072 37.2334 113.072L45.6278 97.4828L32.7563 93.3661L29.9681 92.2082L28.7337 74.5459L24.2323 74.925L20.9196 87.7601C20.1512 90.7353 20.7742 93.8959 22.6559 96.3637Z" fill="#745499"/>
<path d="M29.9707 92.2095L25.0331 92.8488" stroke="#222222" stroke-width="0.5" stroke-miterlimit="10" stroke-linecap="round" stroke-linejoin="round"/>
<path d="M24.2323 74.9264L24.5937 73.5189L28.1734 72.8372L28.2799 74.585L24.2323 74.9264Z" fill="#F2F2F2"/>
<path d="M23.7743 77.1052H28.9133" stroke="#222222" stroke-width="0.5" stroke-miterlimit="10" stroke-linecap="round" stroke-linejoin="round"/>
<path d="M68.4749 130.007C68.9349 126.828 70.5495 126.226 70.5495 126.226L67.2411 127.312" stroke="#222222" stroke-width="0.5" stroke-miterlimit="10" stroke-linecap="round" stroke-linejoin="round"/>
<path d="M80.097 123.61L81.7122 123.057L84.1086 126.391L82.2816 127.707L80.097 123.61Z" fill="#F2F2F2"/>
<path d="M77.9187 123.998L80.2537 129.581" stroke="#222222" stroke-width="0.5" stroke-miterlimit="10" stroke-linecap="round" stroke-linejoin="round"/>
<path d="M61.5391 122.153H106.004V119.516H64.2647C62.7595 119.516 61.5391 120.696 61.5391 122.153Z" fill="#676768"/>
<path d="M106.001 122.154H77.055L85.5413 101.395H114.488L106.001 122.154Z" fill="#7C7C7C"/>
<path d="M98.6289 111.6C98.6289 112.363 97.9901 112.981 97.2017 112.981C96.4132 112.981 95.7738 112.363 95.7738 111.6C95.7738 110.837 96.4132 110.219 97.2017 110.219C97.9901 110.219 98.6289 110.837 98.6289 111.6Z" fill="white"/>
<path d="M23.7743 67.1663L26.2565 68.7245" stroke="#222222" stroke-width="0.5" stroke-miterlimit="10" stroke-linecap="round" stroke-linejoin="round"/>
<path d="M129.943 69.4564L119.956 88.5156L147.053 101.809L157.04 82.7501L129.943 69.4564Z" fill="#745499"/>
<path d="M128.106 68.5461L115.728 86.4327L119.957 88.5072L129.943 69.4474L128.106 68.5461Z" fill="#222222"/>
<path d="M125.259 78.3843L152.357 91.6773" stroke="white" stroke-width="0.5" stroke-miterlimit="10" stroke-linecap="round" stroke-linejoin="round"/>
<path d="M138.509 73.6497C139.958 70.8841 143.449 69.7791 146.307 71.1808C149.165 72.583 150.307 75.9609 148.858 78.7265" stroke="#020B31" stroke-miterlimit="10"/>
<path d="M133.124 83.9338C132.74 83.7454 132.586 83.2915 132.781 82.9195L133.486 81.5731C133.681 81.2011 134.15 81.0528 134.534 81.2411C134.918 81.4295 135.072 81.8834 134.877 82.2554L134.172 83.6017C133.977 83.9738 133.508 84.1221 133.124 83.9338Z" fill="#020B31"/>
<path d="M143.473 89.0095C143.088 88.8211 142.935 88.3672 143.129 87.9951L143.834 86.6488C144.029 86.2768 144.498 86.1284 144.883 86.3168C145.267 86.5052 145.421 86.9591 145.226 87.3311L144.521 88.6774C144.325 89.0495 143.856 89.1978 143.473 89.0095Z" fill="#020B31"/>
<path d="M224.021 144.961C224.04 144.909 224.057 144.855 224.077 144.805C224.86 142.8 225.243 136.762 225.234 133.228L233.364 134.445L233.099 141.654C233.054 142.864 233.402 144.587 234.594 144.956C236.2 145.453 238.605 146.081 240.786 146.748C240.005 147.354 238.81 147.978 237.174 148.012C234.558 148.066 227.975 145.267 224.021 144.961Z" fill="#F2F2F2"/>
<path d="M155.206 151.914C155.256 151.887 155.306 151.858 155.355 151.834C157.322 150.847 161.773 146.6 164.206 143.964L169.417 150.122L164.244 155.318C163.376 156.19 162.446 157.697 163.079 158.741C163.931 160.149 165.288 162.171 166.452 164.077C165.452 164.023 164.132 163.716 162.89 162.683C160.906 161.034 157.938 154.696 155.206 151.914Z" fill="#F2F2F2"/>
<path d="M246.138 147.021L233.134 139.55L230.966 141.058C230.966 141.058 230.627 143.744 228.663 143.941C226.699 144.138 224.599 141.516 224.599 141.516C222.361 143.437 222.361 146.758 222.678 148.987H251.93C249.801 147.774 246.138 147.021 246.138 147.021Z" fill="#745499"/>
<path d="M166.857 165.829L165.995 154.342L163.478 153.483C163.478 153.483 161.006 154.749 159.716 153.302C158.427 151.855 159.451 148.69 159.451 148.69C156.542 148.01 153.726 149.908 152.017 151.434L162.196 167.349L169.252 170.949C169.064 168.564 166.857 165.829 166.857 165.829Z" fill="#745499"/>
<path d="M238.998 142.92L236.232 144.351" stroke="#222222" stroke-width="0.5" stroke-miterlimit="10" stroke-linecap="round" stroke-linejoin="round"/>
<path d="M241.438 144.352L238.672 145.782" stroke="#222222" stroke-width="0.5" stroke-miterlimit="10" stroke-linecap="round" stroke-linejoin="round"/>
<path d="M253.383 151.281V150.429C253.242 149.9 252.68 149.415 251.929 148.988H222.677C222.869 150.334 223.176 151.281 223.176 151.281H253.383Z" fill="#222222"/>
<path d="M166.484 160.924L163.69 159.545" stroke="#222222" stroke-width="0.5" stroke-miterlimit="10" stroke-linecap="round" stroke-linejoin="round"/>
<path d="M166.668 163.682L163.873 162.302" stroke="#222222" stroke-width="0.5" stroke-miterlimit="10" stroke-linecap="round" stroke-linejoin="round"/>
<path d="M169.25 170.947C169.25 170.947 170.142 172.228 169.632 173.166L160.225 168.366L150.177 151.764C150.177 151.764 150.573 150.952 152.015 151.432L162.194 167.348L169.25 170.947Z" fill="#222222"/>
<path d="M197.434 57.7212C202.092 60.8918 207.842 62.1857 213.468 61.328L229.406 58.8991C229.406 58.8991 235.114 58.6748 236.327 58.636C237.722 58.5912 237.63 57.8253 237.63 57.8253L234.14 57.3303C234.14 57.3303 238.643 57.644 239.017 56.0434L233.898 55.775C233.898 55.775 239.513 54.9779 239.045 53.6074L233.688 53.8188C233.688 53.8188 238.163 52.6885 237.643 51.4346L230.408 52.4966L231.921 48.998C231.921 48.998 230.453 48.1904 227.998 52.3265C227.384 53.3602 221.315 53.9377 213.695 54.1455C209.701 54.2544 205.748 53.3231 202.265 51.4275L201.595 51.0626L197.434 57.7212Z" fill="#FB7869"/>
<path d="M194.086 59.3902L188.973 57.4034L186.461 47.3005C186.461 47.3005 190.396 45.2742 195.142 47.3005C199.888 49.3267 208.403 53.2438 208.403 53.2438C212.74 53.7259 226.04 53.1431 226.04 53.1431C226.04 53.1431 226.907 57.0538 226.04 60.2103L219.435 61.5484C210.951 63.2673 202.13 62.5167 194.086 59.3902Z" fill="#745499"/>
<path d="M184.828 97.0586L185.344 116.838C185.344 116.838 185.328 119.779 181.698 123.426C178.069 127.073 160.899 144.633 160.899 144.633C160.899 144.633 162.574 154.223 166.762 156.52L195.937 128.154C195.937 128.154 200.962 125.048 200.823 116.808C200.747 112.36 200.754 106.027 200.777 101.136C195.399 101.103 191.294 100.716 188.632 99.428C187.134 98.7034 185.884 97.901 184.828 97.0586Z" fill="#222222"/>
<path d="M227.346 84.5718H179.605C179.605 84.5718 178.086 91.6754 184.828 97.0601C185.883 97.9031 187.134 98.7049 188.632 99.4296C191.294 100.718 195.398 101.104 200.777 101.137C201.039 101.139 201.3 101.141 201.568 101.141C207.338 101.141 225.764 101.141 225.764 101.141L223.065 136.08C228.556 139.412 236.559 138.961 236.559 138.961L240.561 95.4677C239.444 83.9419 227.346 84.5718 227.346 84.5718Z" fill="#222222"/>
<path d="M183.974 84.5713C183.974 84.5713 183.387 97.6595 197.501 97.6595C211.614 97.6595 229.575 97.6595 229.575 97.6595L225.603 137.312" stroke="white" stroke-width="0.5" stroke-miterlimit="10" stroke-linecap="round" stroke-linejoin="round"/>
<path d="M186.461 92.8008L193.632 84.5657" stroke="white" stroke-width="0.5" stroke-miterlimit="10" stroke-linecap="round" stroke-linejoin="round"/>
<path d="M225.762 101.141C225.762 101.141 227.414 98.9804 230.834 96.6162" stroke="white" stroke-width="0.5" stroke-miterlimit="10" stroke-linecap="round" stroke-linejoin="round"/>
<path d="M225.721 101.678C225.727 101.596 228.322 100.262 231.742 99.7888" stroke="white" stroke-width="0.5" stroke-miterlimit="10" stroke-linecap="round" stroke-linejoin="round"/>
<path d="M193.314 100.701C193.195 101.205 192.879 110.615 192.706 116.028C192.629 118.448 191.635 120.754 189.912 122.511L162.534 150.456" stroke="white" stroke-width="0.5" stroke-miterlimit="10" stroke-linecap="round" stroke-linejoin="round"/>
<path d="M185.342 116.839C185.342 116.839 187.8 117.072 189.56 118.88" stroke="white" stroke-width="0.5" stroke-miterlimit="10" stroke-linecap="round" stroke-linejoin="round"/>
<path d="M185.342 117.575C185.342 117.575 187.63 118.67 188.769 120.591" stroke="white" stroke-width="0.5" stroke-miterlimit="10" stroke-linecap="round" stroke-linejoin="round"/>
<path d="M232.883 53.1428C232.883 53.1428 234.326 54.9436 234.047 57.9153" stroke="#222222" stroke-width="0.5" stroke-miterlimit="10" stroke-linecap="round" stroke-linejoin="round"/>
<path d="M231.355 53.7976C231.355 53.7976 231.076 55.3511 228.843 56.1276" stroke="#222222" stroke-width="0.5" stroke-miterlimit="10" stroke-linecap="round" stroke-linejoin="round"/>
<path d="M230.244 55.3821L232.507 57.7133" stroke="#222222" stroke-width="0.5" stroke-miterlimit="10" stroke-linecap="round" stroke-linejoin="round"/>
<path d="M145.67 66.3452C148.913 63.3141 165.239 48.2715 170.34 47.8406L171.594 55.5258L170.838 55.6648C166.954 56.3783 163.333 58.0866 160.382 60.6315C154.646 65.5764 150.475 69.8267 150.562 71.0223C150.74 73.4654 149.409 74.349 149.409 74.349L148.601 72.7531C148.189 72.9732 147.709 73.0374 147.251 72.9308C146.439 72.7419 145.186 72.2221 144.271 70.7904C143.754 69.9798 144.155 67.7616 145.67 66.3452Z" fill="#FB7869"/>
<path d="M151.549 69.1334C146.822 67.0554 146.676 65.1245 146.676 65.1245C151.136 57.6659 159.633 51.8085 164.818 48.7243C172.438 44.1921 181.794 43.0424 190.195 46.017C190.49 46.1218 190.784 46.2307 191.076 46.3449L191.248 46.4114L196.717 62.5084L200.826 84.5704H179.605L172.445 56.3713C172.445 56.3713 166.262 57.1343 160.982 60.979C155.701 64.8231 151.549 69.1334 151.549 69.1334Z" fill="#745499"/>
<path d="M182.461 39.7776V44.5783L189.022 47.8408L191.073 46.3461L190.021 39.7776H182.461Z" fill="#FB7869"/>
<path d="M182.461 39.7776L182.475 40.0819C183.984 41.9345 186.793 43.5852 190.567 43.1878L190.021 39.7782L182.461 39.7776Z" fill="#FB7869"/>
<path d="M191.382 24.4241C192.493 25.6245 193.039 27.3876 193.547 28.9223C194.628 32.1942 196.561 39.7835 191.059 41.2952C184.194 43.1819 181.457 39.0794 179.833 36.3838C178.209 33.69 177.608 26.4933 183.031 23.7307C187.045 21.6856 189.767 22.6793 191.382 24.4241Z" fill="#FB7869"/>
<path d="M189.025 31.0208C189.025 31.0208 189.329 32.0874 190.697 32.9569C192.299 33.9754 192.065 34.4498 191.022 35.2345" stroke="#222222" stroke-width="0.5" stroke-miterlimit="10" stroke-linecap="round" stroke-linejoin="round"/>
<path opacity="0.5" d="M185.413 34.3783C185.697 33.7837 186.34 34.3094 186.34 34.3094C186.34 34.3094 186.521 33.427 187.112 33.7266C187.625 33.9862 187.272 35.3225 186.885 35.4797C186.5 35.6369 185.171 34.8863 185.413 34.3783Z" fill="#F43D4F"/>
<path opacity="0.5" d="M194.374 33.6275C193.961 33.1095 193.454 33.7612 193.454 33.7612C193.454 33.7612 193.074 32.94 192.567 33.3597C192.128 33.7235 192.779 34.9497 193.192 35.0198C193.606 35.0892 194.727 34.0702 194.374 33.6275Z" fill="#F43D4F"/>
<path d="M191.457 36.9727C191.457 36.9727 189.76 37.8698 188.363 36.4128" stroke="#222222" stroke-width="0.5" stroke-miterlimit="10" stroke-linecap="round" stroke-linejoin="round"/>
<path d="M191.223 28.4637C191.768 28.419 192.47 28.4955 193.259 28.9005" stroke="#222222" stroke-width="0.5" stroke-miterlimit="10" stroke-linecap="round" stroke-linejoin="round"/>
<path d="M186.908 28.9739C186.369 29.0575 185.707 29.2959 185.041 29.8728" stroke="#222222" stroke-width="0.5" stroke-miterlimit="10" stroke-linecap="round" stroke-linejoin="round"/>
<path d="M187.759 31.6537C187.759 31.9975 187.471 32.276 187.116 32.276C186.761 32.276 186.473 31.9975 186.473 31.6537C186.473 31.3099 186.761 31.0315 187.116 31.0315C187.471 31.0309 187.759 31.3099 187.759 31.6537Z" fill="#222222"/>
<path d="M192.346 30.9379C192.346 31.2817 192.059 31.5601 191.703 31.5601C191.348 31.5601 191.06 31.2817 191.06 30.9379C191.06 30.5941 191.348 30.3157 191.703 30.3157C192.058 30.3157 192.346 30.5941 192.346 30.9379Z" fill="#222222"/>
<path d="M197.279 23.8541C196.45 22.3777 194.359 24.3927 195.186 23.0894C196.384 21.2015 194.864 19.3424 192.079 21.1361C189.295 22.9299 184.633 17.5993 180.232 20.6287C175.83 23.6581 177.995 26.9429 177.995 26.9429C177.995 26.9429 175.262 27.0141 174.989 29.9499C174.531 34.8554 182.483 34.8554 182.483 34.8554C182.344 32.9916 180.732 28.218 180.732 28.218C183.212 23.6339 189.407 27.0171 192.148 27.3621L193.776 29.3395L193.34 27.342C195.683 27.0477 198.16 25.4224 197.279 23.8541Z" fill="#222222"/>
<path d="M180.723 31.8437C179.965 31.6595 178.793 31.6724 177.941 33.0499C176.279 35.7326 180.617 38.3663 182.71 37.2773C182.323 36.5826 182.151 36.0922 182.151 36.0922C181.442 34.554 180.979 33.1382 180.723 31.8437Z" fill="#FB7869"/>
<path d="M179.095 34.8771C179.095 34.8771 178.907 33.5266 180.003 33.0269" stroke="#222222" stroke-width="0.5" stroke-miterlimit="10" stroke-linecap="round" stroke-linejoin="round"/>
<path d="M179.415 33.5034C179.415 33.5034 179.556 35.0481 181.541 35.9724" stroke="#222222" stroke-width="0.5" stroke-miterlimit="10" stroke-linecap="round" stroke-linejoin="round"/>
<path d="M200.824 84.571L197.438 66.3872C196.957 63.8052 196.291 61.2586 195.443 58.7661L191.245 46.4126" stroke="#222222" stroke-width="0.5" stroke-miterlimit="10" stroke-linecap="round" stroke-linejoin="round"/>
<path d="M172.445 56.3717L177.128 74.5549L175.867 56.2021L172.445 56.3717Z" fill="#5C457B"/>
<path d="M180.001 44.3784C180.065 48.3185 187.116 50.549 187.116 50.549L189.024 47.8411L191.246 49.8025L192.034 48.7311" stroke="#222222" stroke-width="0.5" stroke-miterlimit="10"/>
<path d="M190.761 49.3741L189.024 47.8406L187.708 49.7091L188.992 51.1201C187.893 53.373 184.555 54.9201 179.416 51.5087C173.549 47.6139 166.777 50.037 164.265 52.2763L167.968 54.7941C167.968 54.7941 173.391 51.6364 179.082 55.4758C184.337 59.0214 192.024 57.8217 190.082 50.8582L190.761 49.3741Z" fill="#222222"/>
<path d="M148.26 62.7563C148.26 62.7563 150.261 65.8805 153.615 67.1203" stroke="#222222" stroke-width="0.5" stroke-miterlimit="10" stroke-linecap="round" stroke-linejoin="round"/>
<path d="M148.204 64.851C147.999 65.1324 147.716 65.2801 147.571 65.1812C147.426 65.0823 147.473 64.7744 147.678 64.4931C147.882 64.2117 148.165 64.0639 148.31 64.1628C148.456 64.2617 148.408 64.5696 148.204 64.851Z" fill="#222222"/>
<path d="M222.589 53.2725C222.589 53.2725 224.11 55.7755 222.876 60.8518" stroke="#222222" stroke-width="0.5" stroke-miterlimit="10" stroke-linecap="round" stroke-linejoin="round"/>
<path d="M328.394 58.8702C326.544 51.046 334.713 52.6666 332.857 44.8171C331.001 36.9682 342.733 34.6647 338.018 30.9754C333.302 27.2861 333.433 18.7596 337.634 15.2464C341.835 11.7331 345.92 15.9239 345.92 15.9239C349.721 18.6301 342.222 23.4679 340.876 20.0765C339.53 16.6857 340.977 9.76102 349.059 10.4468C353.921 10.8595 355.263 14.5817 355.622 16.943C355.771 17.9184 356.523 18.7184 357.522 18.9139C358.589 19.1223 360.159 18.659 361.575 20.2172C364.408 23.3331 360.231 25.7208 362.021 28.2221C363.81 30.7234 372.166 30.6057 370.774 38.0161C369.382 45.4264 384.434 43.0987 381.774 53.7233L328.394 58.8702Z" fill="#222222"/>
<path d="M341.816 39.8313C341.816 39.8313 335.953 41.4861 333.573 52.6564C331.654 61.6597 331.44 63.5747 330.584 67.1839C330.183 68.8699 328.95 72.0729 333.573 73.4698C338.195 74.8668 339.18 68.4937 339.655 67.1839C340.09 65.9847 341.234 61.9381 342.336 57.9404C343.979 51.9823 343.8 45.6911 341.816 39.8313Z" fill="#745499"/>
<path d="M323.896 39.6742C323.896 39.6742 322.725 39.2321 322.868 38.043C322.868 38.043 327.081 38.6281 329.522 38.9672C330.133 39.052 330.792 39.3828 331.041 39.5606C332.297 40.4577 331.829 42.8872 332.112 45.0124C332.394 47.1375 332.816 50.2305 332.816 50.2305L335.88 69.0548C335.88 69.0548 336.741 72.4509 332.666 72.833C330.77 73.0108 329.866 71.1758 329.476 69.6453C328.922 67.4713 328.696 66.434 328.357 64.6326C327.72 61.253 323.896 39.6742 323.896 39.6742Z" fill="#F47365"/>
<path d="M307.581 35.3098C308.594 39.6849 311.48 42.7837 314.026 42.2315C316.573 41.6794 317.816 37.6851 316.803 33.3106C315.791 28.9355 312.905 25.8367 310.358 26.3889C307.812 26.9411 306.568 30.9353 307.581 35.3098Z" fill="#7C7C7C"/>
<path d="M311.829 30.5858L326.289 29.2012L327.306 35.8562L313.493 37.7718L311.829 30.5858Z" fill="#A6A6A6"/>
<path d="M310.571 34.6328C311.03 36.6173 312.34 38.023 313.495 37.7729C314.65 37.5227 315.214 35.7107 314.755 33.7262C314.295 31.7418 312.986 30.336 311.831 30.5862C310.676 30.8364 310.112 32.6484 310.571 34.6328Z" fill="#F4F4F4"/>
<path d="M328.642 37.1487L330.585 50.3941L325.091 50.241L323.198 37.3294L328.642 37.1487Z" fill="#745499"/>
<path d="M325.386 32.9574C325.997 35.5929 327.735 37.4596 329.269 37.127C330.804 36.7944 331.552 34.3885 330.942 31.7529C330.332 29.1174 328.594 27.2507 327.06 27.5833C325.526 27.9159 324.777 30.3218 325.386 32.9574Z" fill="#745499"/>
<path d="M316.804 33.3108C316.06 30.0995 314.308 27.5829 312.42 26.6857L312.419 26.6804L321.733 28.586L327.062 27.5852L328.644 37.149L323.202 37.3285L315.415 41.4858L315.414 41.4799C316.985 40.0229 317.61 36.7905 316.804 33.3108Z" fill="#745499"/>
<path d="M329.713 43.3499C326.732 43.6455 325.652 40.672 325.652 40.672C325.652 40.672 324.377 40.0433 323.896 39.6742C323.896 39.6742 322.575 39.0343 322.868 38.043L329.522 38.9672" fill="#F47365"/>
<path d="M323.807 40.4934C323.807 40.4934 324.172 41.2969 325.441 41.8815C326.711 42.466 326.482 43.5569 326.482 43.5569C326.482 43.5569 324.22 43.2743 322.625 42.854C321.03 42.4343 320.596 42.1128 320.485 40.8607C320.354 39.3631 323.405 38.7444 323.405 38.7444L323.619 40.1872L323.807 40.4934Z" fill="#F47365"/>
<path d="M323.104 40.7517C323.104 40.7517 320.447 41.3516 320.589 42.7491C320.716 44.0001 321.134 44.3227 322.728 44.7424C324.323 45.1621 326.585 45.4453 326.585 45.4453C326.585 45.4453 326.814 44.3544 325.544 43.7699C324.275 43.1853 324.1 42.1557 324.1 42.1557" fill="#F47365"/>
<path d="M323.07 42.365C323.07 42.365 320.413 42.9649 320.555 44.3624C320.682 45.6133 321.099 45.9359 322.694 46.3557C324.289 46.7754 326.551 47.0586 326.551 47.0586C326.551 47.0586 326.78 45.9671 325.51 45.3832C324.241 44.7986 324.066 43.769 324.066 43.769" fill="#F47365"/>
<path d="M323.089 43.9153C323.089 43.9153 320.573 44.4834 320.707 45.8067C320.827 46.9912 321.223 47.2967 322.734 47.6946C324.244 48.0926 326.386 48.3604 326.386 48.3604C326.386 48.3604 326.603 47.3273 325.401 46.7739C324.198 46.2206 324.033 45.2451 324.033 45.2451" fill="#F47365"/>
<path d="M322.948 38.874C322.948 38.874 320.345 39.4621 320.487 40.8597C320.613 42.1106 321.031 42.4332 322.627 42.8529C324.222 43.2727 326.484 43.5558 326.484 43.5558C326.484 43.5558 326.712 42.465 325.443 41.8804C324.173 41.2959 323.62 40.1862 323.62 40.1862" stroke="#020B31" stroke-width="0.5" stroke-miterlimit="10" stroke-linecap="round" stroke-linejoin="round"/>
<path d="M320.822 41.9658C320.654 42.1919 320.559 42.4515 320.589 42.747C320.716 43.998 321.134 44.3206 322.728 44.7403C324.323 45.16 326.585 45.4432 326.585 45.4432C326.585 45.4432 326.814 44.3523 325.544 43.7678C325.251 43.6324 325.015 43.4734 324.828 43.3092" stroke="#020B31" stroke-width="0.5" stroke-miterlimit="10" stroke-linecap="round" stroke-linejoin="round"/>
<path d="M320.772 43.6079C320.616 43.8275 320.529 44.0789 320.558 44.3626C320.685 45.6136 321.103 45.9362 322.698 46.3559C324.293 46.7756 326.555 47.0588 326.555 47.0588C326.555 47.0588 326.784 45.9674 325.514 45.3834C325.423 45.3416 325.337 45.2968 325.257 45.2509" stroke="#020B31" stroke-width="0.5" stroke-miterlimit="10" stroke-linecap="round" stroke-linejoin="round"/>
<path d="M329.714 43.3507C326.732 43.6462 325.653 40.6727 325.653 40.6727C325.653 40.6727 324.475 40.0117 323.896 39.6749C323.896 39.6749 322.633 39.0633 322.851 38.1096" stroke="#020B31" stroke-width="0.5" stroke-miterlimit="10" stroke-linecap="round" stroke-linejoin="round"/>
<path d="M320.772 45.3435C320.716 45.4866 320.69 45.6414 320.707 45.808C320.827 46.9924 321.223 47.2979 322.734 47.6959C324.244 48.0938 326.386 48.3617 326.386 48.3617C326.386 48.3617 326.565 47.5087 325.696 46.9377" stroke="#020B31" stroke-width="0.5" stroke-miterlimit="10" stroke-linecap="round" stroke-linejoin="round"/>
<path d="M347.556 105.242L347.668 104.72L348.783 99.5246C348.116 99.1708 347.625 98.7358 347.723 98.2395C347.793 97.8863 348.014 97.6879 348.304 97.5884C349.478 97.1857 350.415 96.3481 350.866 95.2248C351.481 93.6949 352.669 92.8501 352.669 92.8501L353.798 93.3293L354.733 93.7261C356.642 93.8791 358.47 94.5408 360.012 95.6381L360.07 95.6793L357.559 99.783L355.361 103.376L350.979 110.537C348.948 112.197 346.284 111.162 346.284 111.162L347.556 105.242Z" fill="#7F8284"/>
<path d="M347.172 97.1607L326.417 85.8009L331.873 79.9541C331.873 79.9541 346.972 89.8752 350.68 92.5466C349.022 96.0999 347.172 97.1607 347.172 97.1607Z" fill="#F47365"/>
<path d="M347.773 98.0882L347.175 97.1622C347.175 97.1622 349.025 96.1014 350.683 92.5481C351.766 93.3281 352.337 92.8436 352.889 93.2622L351.965 95.5062C351.289 97.151 349.6 98.1918 347.773 98.0882Z" fill="white"/>
<path d="M346.287 111.164C346.287 111.164 348.951 112.2 350.981 110.539L355.363 103.378L357.562 99.7853L360.073 95.6816L361.159 96.0484L358.537 100.335L356.24 104.089L352.115 110.831C350.25 113.878 345.929 112.074 345.929 112.074L346.287 111.164Z" fill="#222222"/>
<path d="M349.351 96.1803C348.803 96.7678 348.181 97.3323 347.514 97.8368L347.324 97.6014C349.199 96.1803 350.709 94.2871 351.171 92.7771L351.467 92.8625C351.155 93.8856 350.385 95.0736 349.351 96.1803Z" fill="#020B31"/>
<path d="M329.931 75.3847C336.596 74.8619 364.693 81.8331 364.693 81.8331L368.593 99.7326C360.487 98.4258 354.401 95.9256 350.016 93.4025L347.943 99.0868C347.943 99.0868 332.633 95.427 326.149 88.4558C319.665 81.4846 323.267 75.9074 329.931 75.3847Z" fill="#111111"/>
<path d="M354.695 85.7226C347.949 83.867 331.549 76.5079 329.408 81.1356C327.637 84.9661 332.206 87.3968 349.268 95.4588" stroke="white" stroke-width="0.5" stroke-miterlimit="10"/>
<path d="M350.017 93.4026C350.017 93.4026 341.91 88.7173 339.659 85.1445" stroke="white" stroke-width="0.5" stroke-miterlimit="10" stroke-linecap="round" stroke-linejoin="round"/>
<path d="M352.807 36.5187C352.807 36.5187 363.613 34.2528 368.477 47.1497C373.339 60.0466 373.339 63.7064 379.824 72.2464C386.308 80.7865 386.308 89.5002 386.308 89.5002C386.308 89.5002 365.775 83.226 350.646 81.1344C350.646 81.1344 346.143 67.5405 343.441 64.5777C343.441 64.5777 337.677 65.1004 338.671 59.6698C338.671 59.6698 340.919 48.3695 341.82 39.83C341.82 39.83 346.322 37.0414 352.807 36.5187Z" fill="#745499"/>
<path d="M368.475 47.1567C367.49 50.906 368.098 54.879 370.26 58.1338C371.972 60.7123 374.09 63.8594 376.208 66.8982C373.079 61.5035 372.207 57.0448 368.476 47.1514C368.476 47.1514 368.476 47.1531 368.475 47.1567Z" fill="#5C457B"/>
<path d="M350.646 81.1357C350.646 81.1357 346.143 67.5418 343.441 64.579C343.441 64.579 337.677 65.1017 338.671 59.6711C338.671 59.6711 340.919 48.3707 341.82 39.8313" stroke="#222222" stroke-width="0.5" stroke-miterlimit="10" stroke-linecap="round" stroke-linejoin="round"/>
<path d="M354.428 61.0902C354.428 61.0902 359.352 62.3606 362.185 58.9321" stroke="#222222" stroke-width="0.5" stroke-miterlimit="10" stroke-linecap="round" stroke-linejoin="round"/>
<path d="M346.933 43.4989C346.963 43.7473 346.778 43.9716 346.522 44.0005C346.265 44.0287 346.032 43.8503 346.003 43.6019C345.974 43.3535 346.158 43.1286 346.415 43.1004C346.672 43.0721 346.904 43.2505 346.933 43.4989Z" fill="#222222"/>
<path d="M347.33 46.1228C347.36 46.3712 347.175 46.5955 346.919 46.6244C346.662 46.6526 346.429 46.4742 346.4 46.2258C346.371 45.9774 346.555 45.7531 346.812 45.7248C347.069 45.6954 347.301 45.8744 347.33 46.1228Z" fill="#222222"/>
<path d="M327.8 93.1091L328.321 92.9372L333.511 91.2247C333.487 90.4889 333.624 89.8584 334.115 89.6877C334.465 89.5664 334.754 89.6494 334.99 89.8407C335.945 90.6143 337.167 90.9686 338.396 90.7738C340.07 90.5083 341.426 91.0687 341.426 91.0687L341.574 92.2532L341.696 93.2339C342.531 94.9016 342.871 96.7607 342.679 98.6045L342.672 98.6733L337.743 98.6674L333.428 98.6627L324.827 98.6527C322.318 97.805 321.884 95.0588 321.884 95.0588L327.8 93.1091Z" fill="#7F8284"/>
<path d="M334.795 88.6776L334.351 65.6089L342.329 67.1824C342.329 67.1824 341.177 84.807 340.685 89.2551C336.68 89.6796 334.795 88.6776 334.795 88.6776Z" fill="#F47365"/>
<path d="M334.277 89.6468L334.796 88.6772C334.796 88.6772 336.681 89.6792 340.686 89.2542C340.542 90.5534 341.265 90.7836 341.172 91.4552L338.706 91.8267C336.898 92.0999 335.113 91.2209 334.277 89.6468Z" fill="white"/>
<path d="M321.884 95.0583C321.884 95.0583 322.317 97.8046 324.826 98.6523L333.427 98.6623L337.742 98.667L342.671 98.6729L342.897 99.7643L337.748 99.7584L333.241 99.7531L325.143 99.7437C321.483 99.7396 320.893 95.222 320.893 95.222L321.884 95.0583Z" fill="#222222"/>
<path d="M336.778 89.9944C335.976 89.8361 335.158 89.6053 334.369 89.3063L334.482 89.0278C336.701 89.8679 339.154 90.164 340.732 89.7802L340.807 90.0704C339.737 90.33 338.288 90.2923 336.778 89.9944Z" fill="#020B31"/>
<path d="M333.954 89.9482C334.194 84.7195 332.993 77.1673 333.954 63.9219C334.914 50.6766 345.666 44.7114 355.506 58.8693C361.217 67.0873 371.658 83.0924 371.658 83.0924L386.307 89.3083C386.307 89.3083 385.106 99.7074 372.858 99.8234C360.611 99.9394 354.334 95.5919 352.445 89.3083C351.858 87.3539 347.628 76.5586 344.816 69.3396C344.618 71.4418 344.478 73.6458 344.521 75.4236C344.64 80.4198 341.519 89.947 341.519 89.947C341.519 89.947 337.5 91.8968 333.954 89.9482Z" fill="#222222"/>
<path d="M381.538 87.2839C378.893 92.7999 376.85 94.1503 373.541 94.1503C369.177 94.1503 366.971 91.2675 362.433 82.4314C350.646 59.4857 348.986 58.6174 344.602 59.1655C340.189 59.7171 340.944 62.933 341.183 68.572C341.575 77.8297 339.235 90.6477 339.235 90.6477" stroke="white" stroke-width="0.5" stroke-miterlimit="10"/>
<path d="M337.067 28.4125C337.067 28.4125 334.651 28.0952 334.813 25.6469C334.976 23.1797 337.38 23.882 337.38 23.882C337.38 23.882 336.796 25.6009 337.067 28.4125Z" fill="#FB7869"/>
<path d="M336.654 24.6763C336.654 24.6763 335.701 24.4773 335.31 25.4763" stroke="#222222" stroke-width="0.5" stroke-miterlimit="10" stroke-linecap="round" stroke-linejoin="round"/>
<path d="M336.054 24.822C336.054 24.822 335.721 25.8069 336.396 26.7017" stroke="#222222" stroke-width="0.5" stroke-miterlimit="10" stroke-linecap="round" stroke-linejoin="round"/>
<path d="M337.377 28.1559C337.431 28.6733 337.04 29.1342 336.505 29.186C335.971 29.2379 335.494 28.8599 335.441 28.3425C335.387 27.825 335.778 27.3641 336.312 27.3123C336.847 27.2611 337.324 27.6384 337.377 28.1559Z" fill="#5C457B"/>
<path d="M353.187 22.5712C354.114 26.1733 353.324 30.1363 352.193 31.8977C351.983 32.2244 351.754 32.5134 351.518 32.7866C348.894 35.8195 344.882 35.7123 344.882 35.7123C344.882 35.7123 344.714 35.7011 344.431 35.6511C342.907 35.3821 338.027 33.9934 337.737 27.2176C337.622 24.5385 338.172 22.2774 338.957 20.4525C339.474 19.2504 340.269 18.272 341.225 17.5432L342.322 18.6211C345.169 21.4173 349.141 22.862 353.187 22.5712Z" fill="#FB7869"/>
<path d="M354.084 28.0824C354.084 28.0824 357.064 27.8375 357.02 24.83C356.977 21.7988 353.988 22.5159 353.988 22.5159C353.988 22.5159 354.594 24.6551 354.084 28.0824Z" fill="#FB7869"/>
<path d="M354.83 23.5307C354.83 23.5307 356.008 23.344 356.424 24.5909" stroke="#222222" stroke-width="0.5" stroke-miterlimit="10" stroke-linecap="round" stroke-linejoin="round"/>
<path d="M355.551 23.7456C355.551 23.7456 355.896 24.9712 355.013 26.0273" stroke="#222222" stroke-width="0.5" stroke-miterlimit="10" stroke-linecap="round" stroke-linejoin="round"/>
<path d="M356.384 27.2463C356.449 27.7625 356.07 28.2317 355.537 28.2953C355.003 28.3583 354.518 27.9915 354.453 27.4753C354.387 26.959 354.766 26.4898 355.3 26.4262C355.834 26.3632 356.318 26.73 356.384 27.2463Z" fill="#5C457B"/>
<path d="M344.02 39.2574L344.102 37.8622L344.141 35.6146C344.404 35.6629 344.559 35.6746 344.559 35.6746C344.559 35.6746 347.686 36.0131 350.836 33.4282L351.615 37.2547L351.672 37.6538C351.672 37.6538 351.556 41.4278 346.915 42.0042C343.622 42.4127 344.02 39.2574 344.02 39.2574Z" fill="#FB7869"/>
<path d="M350.686 34.7822C350.801 34.6491 350.914 34.5126 351.024 34.3701L350.832 33.4282C347.683 36.0131 344.556 35.6746 344.556 35.6746C344.556 35.6746 344.4 35.6629 344.137 35.6146L344.11 37.609C344.983 37.5814 348.382 37.446 350.686 34.7822Z" fill="#F27364"/>
<path d="M387.337 39.098C387.337 39.098 369.754 47.9306 365.609 47.8164C361.463 47.7022 354.14 38.6983 356.78 36.526L381.371 33.333C381.371 33.333 386.183 33.4831 387.084 37.8912L387.337 39.098Z" fill="#745499"/>
<path d="M387.748 18.9956C389.699 25.5753 391.036 37.1341 387.339 39.098L387.193 39.0332C384.5 37.8317 381.986 36.1463 381.524 33.3118L382.023 16.5026C381.909 15.0832 381.422 14.9855 380.812 13.7846C380.203 12.5837 378.966 6.36543 378.966 6.36543C378.966 6.36543 380.534 5.68786 381.193 9.62144C381.193 9.62144 381.812 10.4474 382.181 9.48192C382.551 8.51648 383.698 2.46011 383.698 2.46011C383.698 2.46011 383.868 1.0249 384.751 1.19091L384.508 6.4137L386.588 0C386.588 0 387.558 0.462706 387.083 2.14869L387.481 0.805909C387.481 0.805909 388.497 0.994877 387.91 3.65102C387.323 6.30716 387.095 8.20742 387.095 8.20742L388.682 5.86682C388.682 5.86682 388.911 3.17771 389.788 3.3031C389.788 3.3031 389.987 5.76556 389.875 6.44549C389.763 7.12542 386.747 14.7318 386.747 14.7318C386.747 14.7318 386.711 15.3458 386.765 15.9886C386.818 16.6327 387.748 18.9956 387.748 18.9956Z" fill="#FB7869"/>
<path d="M387.083 2.14941L385.613 7.78959" stroke="#222222" stroke-width="0.5" stroke-miterlimit="10" stroke-linecap="round" stroke-linejoin="round"/>
<path d="M383.417 7.43978C383.417 7.43978 385.695 7.17841 387.749 9.14166" stroke="#222222" stroke-width="0.5" stroke-miterlimit="10" stroke-linecap="round" stroke-linejoin="round"/>
<path d="M381.775 9.94263C381.775 9.94263 384.11 10.6208 384.093 13.3629" stroke="#222222" stroke-width="0.5" stroke-miterlimit="10" stroke-linecap="round" stroke-linejoin="round"/>
<path d="M347.047 22.7332C347.627 23.0575 348.276 23.6109 348.775 24.5534" stroke="#222222" stroke-width="0.5" stroke-miterlimit="10" stroke-linecap="round" stroke-linejoin="round"/>
<path d="M340.519 23.9793C340.724 23.4954 341.11 22.932 341.833 22.4417" stroke="#222222" stroke-width="0.5" stroke-miterlimit="10" stroke-linecap="round" stroke-linejoin="round"/>
<path d="M344.242 24.6936C344.242 24.6936 344.165 25.9275 342.933 26.8429C341.429 27.9596 341.847 28.513 342.995 29.1158" stroke="#222222" stroke-width="0.5" stroke-miterlimit="10" stroke-linecap="round" stroke-linejoin="round"/>
<path d="M345.041 29.8851C344.427 29.6278 344.311 30.4261 344.311 30.4261C344.311 30.4261 343.577 29.8909 343.345 30.4885C343.144 31.0065 344.314 31.7671 344.706 31.6364C345.098 31.5057 345.566 30.1052 345.041 29.8851Z" fill="#F43D4F"/>
<path opacity="0.5" d="M348.193 28.3074C347.818 27.7717 347.277 28.3851 347.277 28.3851C347.277 28.3851 346.954 27.5527 346.426 27.9371C345.97 28.2703 346.536 29.5189 346.94 29.6119C347.343 29.7049 348.514 28.7654 348.193 28.3074Z" fill="#F43D4F"/>
<path opacity="0.5" d="M339.271 28.7506C339.588 28.1807 340.19 28.7376 340.19 28.7376C340.19 28.7376 340.424 27.8776 340.989 28.2078C341.478 28.4939 341.046 29.792 340.655 29.925C340.264 30.0569 339 29.238 339.271 28.7506Z" fill="#F43D4F"/>
<path d="M342.861 30.8791C342.861 30.8791 344.665 31.4896 345.786 29.8501" stroke="#222222" stroke-width="0.5" stroke-miterlimit="10" stroke-linecap="round" stroke-linejoin="round"/>
<path d="M347.193 26.3016C347.157 26.6772 346.813 26.9527 346.425 26.918C346.037 26.8827 345.752 26.5501 345.788 26.1745C345.825 25.7989 346.169 25.5234 346.556 25.5581C346.944 25.5935 347.23 25.9266 347.193 26.3016Z" fill="#222222"/>
<path d="M348.595 26.3903C348.071 26.4963 347.379 26.5021 346.562 26.199" stroke="#222222" stroke-width="0.5" stroke-miterlimit="10" stroke-linecap="round" stroke-linejoin="round"/>
<path d="M348.575 25.6504C348.116 25.9159 347.464 26.1402 346.589 26.1113" stroke="#222222" stroke-width="0.5" stroke-miterlimit="10" stroke-linecap="round" stroke-linejoin="round"/>
<path d="M339.746 24.7637C340.156 25.0963 340.762 25.4183 341.63 25.5248" stroke="#222222" stroke-width="0.5" stroke-miterlimit="10" stroke-linecap="round" stroke-linejoin="round"/>
<path d="M340.122 24.1199C340.397 24.5643 340.862 25.06 341.647 25.4344" stroke="#222222" stroke-width="0.5" stroke-miterlimit="10" stroke-linecap="round" stroke-linejoin="round"/>
<path d="M342.314 25.594C342.278 25.9696 341.934 26.2451 341.546 26.2104C341.158 26.175 340.873 25.8424 340.909 25.4674C340.946 25.0919 341.29 24.8164 341.678 24.8511C342.065 24.8858 342.35 25.2184 342.314 25.594Z" fill="#222222"/>
<path d="M344.815 69.5319C344.815 69.5319 344.52 65.188 342.899 61.9644" stroke="white" stroke-width="0.5" stroke-miterlimit="10" stroke-linecap="round" stroke-linejoin="round"/>
</g>
<defs>
<clipPath id="clip0_1324_18239">
<rect width="408" height="237" fill="white"/>
</clipPath>
</defs>
</svg>
