<svg width="29" height="29" viewBox="0 0 29 29" fill="none" xmlns="http://www.w3.org/2000/svg">
<path d="M14.5 0C15.8519 0.000108447 16.9482 1.15607 16.9482 2.58203C16.9482 3.80294 16.1441 4.82272 15.0645 5.0918V7.15039H17.665C22.053 7.15039 25.6103 10.7078 25.6104 15.0957H29V23.041H25.6104V29H3.0127V23.041H0V15.1689H3.0127C3.0127 10.7407 6.60298 7.15039 11.0312 7.15039H13.9355V5.0918C12.8561 4.82264 12.0518 3.80287 12.0518 2.58203C12.0518 1.15607 13.1481 0.000108176 14.5 0ZM9.41602 27.8086H12.0518V23.041H9.41602V27.8086ZM13.1816 27.8086H15.8184V23.041H13.1816V27.8086ZM16.9482 23.041V27.8086H19.584V23.041H16.9482ZM10.3574 13.1094C9.00552 13.1094 7.90937 14.2655 7.90918 15.6914C7.90918 17.1175 9.0054 18.2744 10.3574 18.2744C11.7093 18.2743 12.8057 17.1174 12.8057 15.6914C12.8055 14.2656 11.7092 13.1095 10.3574 13.1094ZM18.6426 13.1094C17.2908 13.1095 16.1945 14.2656 16.1943 15.6914C16.1943 17.1174 17.2907 18.2743 18.6426 18.2744C19.9946 18.2744 21.0908 17.1175 21.0908 15.6914C21.0906 14.2655 19.9945 13.1094 18.6426 13.1094Z" fill="black"/>
</svg>
