<svg width="35" height="35" viewBox="0 0 35 35" fill="none" xmlns="http://www.w3.org/2000/svg">
<circle cx="17.5" cy="17.5" r="17.5" fill="#E4E4E4"/>
<path d="M17.0245 6.46352C17.1741 6.00287 17.8259 6.00287 17.9755 6.46353L20.1942 13.2918C20.2611 13.4978 20.4531 13.6373 20.6697 13.6373H27.8494C28.3337 13.6373 28.5351 14.2571 28.1433 14.5418L22.3348 18.7619C22.1595 18.8892 22.0862 19.1149 22.1531 19.3209L24.3718 26.1492C24.5215 26.6098 23.9942 26.9929 23.6024 26.7082L17.7939 22.4881C17.6186 22.3608 17.3814 22.3608 17.2061 22.4881L11.3976 26.7082C11.0058 26.9929 10.4785 26.6098 10.6282 26.1492L12.8469 19.3209C12.9138 19.1149 12.8405 18.8892 12.6652 18.7619L6.85674 14.5418C6.46488 14.2571 6.66627 13.6373 7.15064 13.6373H14.3303C14.5469 13.6373 14.7389 13.4978 14.8058 13.2918L17.0245 6.46352Z" fill="#9747FF"/>
</svg>
