<svg width="25" height="25" viewBox="0 0 25 25" fill="none" xmlns="http://www.w3.org/2000/svg">
<path d="M13.7373 3.36816C14.1111 3.48203 14.4733 3.62215 14.8232 3.78418L17.4639 1.65527L20.3906 4.38184L18.5146 7.07422C18.8387 7.60456 19.1039 8.17391 19.3066 8.77246L22.5029 9.22168L22.5137 13.2217L19.4775 13.6621C19.3561 14.1251 19.1952 14.5716 19.001 15H17C14.7909 15 13 16.7909 13 19V20C13 20.6023 13.1337 21.1733 13.3721 21.6855L13.2568 22.5H9.25684L8.84961 19.6514C8.31168 19.4928 7.79636 19.2828 7.30859 19.0264L5.05371 20.8467L2.12695 18.1201L3.84277 15.6553C3.50112 15.047 3.23142 14.3932 3.04688 13.7041L0.0107422 13.2783L0 9.27832L3.19141 8.81348C3.36265 8.29914 3.58215 7.80717 3.84375 7.3418L1.875 4.72656L4.69824 1.89355L7.41016 3.91992C7.84519 3.69871 8.30118 3.51269 8.77539 3.36816L9.25684 0H13.2568L13.7373 3.36816ZM11.2568 8C9.32384 8 7.75684 9.567 7.75684 11.5C7.75684 13.433 9.32384 15 11.2568 15C13.1898 15 14.7568 13.433 14.7568 11.5C14.7568 9.567 13.1898 8 11.2568 8Z" fill="black"/>
<path d="M23 15C24.1046 15 25 15.8954 25 17V23C25 24.1046 24.1046 25 23 25H15C13.8954 25 13 24.1046 13 23V17C13 15.8954 13.8954 15 15 15H23ZM15 16C14.4477 16 14 16.4477 14 17V23C14 23.5523 14.4477 24 15 24H23C23.5523 24 24 23.5523 24 23V17C24 16.4477 23.5523 16 23 16H15Z" fill="black"/>
<rect x="13" y="16.5" width="12" height="1" fill="black"/>
<rect x="15" y="19.4375" width="0.631968" height="1.74618" transform="rotate(-40 15 19.4375)" fill="black"/>
<rect x="16.1224" y="20.7751" width="0.58206" height="3.79181" transform="rotate(-130 16.1224 20.7751)" fill="black"/>
<rect x="15" y="21.4375" width="0.631968" height="1.74618" transform="rotate(-40 15 21.4375)" fill="black"/>
<rect x="16.1224" y="22.7751" width="0.58206" height="3.79181" transform="rotate(-130 16.1224 22.7751)" fill="black"/>
</svg>
